<svg xmlns="http://www.w3.org/2000/svg" viewBox="0 0 40 23" fill="#0ea5e9" role="img" aria-label="Pipecat">
  <path d="M5.51467 0.0922541C6.07804 -0.118636 6.71388 0.0396122 7.11089 0.48952L12.2814 6.34901H27.7186L32.8891 0.48952C33.2861 0.0396122 33.922 -0.118636 34.4853 0.0922541C35.0487 0.303144 35.4217 0.839038 35.4217 1.43756V14.375H40V17.25H32.5301V5.25565L29.4603 8.73454C29.1858 9.04563 28.7897 9.224 28.3735 9.224H11.6265C11.2103 9.224 10.8142 9.04563 10.5397 8.73454L7.46988 5.25565V17.25H0V14.375H4.57831V1.43756C4.57831 0.839038 4.95131 0.303144 5.51467 0.0922541Z"/>
  <path d="M32.5301 20.125H40V23H32.5301V20.125Z"/>
  <path d="M0 20.125H7.46988V23H0V20.125Z"/>
  <circle cx="13.494" cy="15.3334" r="1.93"/>
  <circle cx="26.506" cy="15.3334" r="1.93"/>
</svg>
